<svg xmlns="http://www.w3.org/2000/svg" xmlns:xlink="http://www.w3.org/1999/xlink" width="48.822" height="42.586" viewBox="0 0 48.822 42.586">
  <defs>
    <filter id="Ellipse_185" x="17.715" y="0" width="31.107" height="31.107" filterUnits="userSpaceOnUse">
      <feOffset dy="3" input="SourceAlpha"/>
      <feGaussianBlur stdDeviation="3" result="blur"/>
      <feFlood flood-opacity="0.161"/>
      <feComposite operator="in" in2="blur"/>
      <feComposite in="SourceGraphic"/>
    </filter>
  </defs>
  <g id="Group_2412" data-name="Group 2412" transform="translate(-21.285 -341)">
    <circle id="Ellipse_310" data-name="Ellipse 310" cx="18.347" cy="18.347" r="18.347" transform="translate(21.285 346.893)" fill="rgba(168,191,84,0.2)"/>
    <path id="Path_3663" data-name="Path 3663" d="M257.81-157.039H236.267a.834.834,0,0,0-.834.834v14.455a.834.834,0,0,0,.834.834H257.81a.834.834,0,0,0,.833-.834v-14.455A.834.834,0,0,0,257.81-157.039Zm-7.209,5.272a.875.875,0,0,1,.565-.188h4.5a.919.919,0,0,1,.576.188.6.6,0,0,1,.244.5.7.7,0,0,1-.244.532.828.828,0,0,1-.576.222h-4.5a.79.79,0,0,1-.565-.222.708.708,0,0,1-.232-.532A.609.609,0,0,1,250.6-151.767Zm-10.657-1.681a2.026,2.026,0,0,1,.453-.665,2.082,2.082,0,0,1,.665-.433,2.049,2.049,0,0,1,.8-.155,2.077,2.077,0,0,1,1.528.588,2,2,0,0,1,.6,1.495,1.992,1.992,0,0,1-.165.82,2.2,2.2,0,0,1-.443.665,2.012,2.012,0,0,1-.665.453,2.159,2.159,0,0,1-.853.166,1.936,1.936,0,0,1-.8-.166,2.139,2.139,0,0,1-.665-.453,2.183,2.183,0,0,1-.453-.665,2.033,2.033,0,0,1-.166-.82A2.066,2.066,0,0,1,239.944-153.448Zm5.393,6.5v1.97a.024.024,0,0,1-.024.024h-6.866a.024.024,0,0,1-.024-.024v-2.059a2.029,2.029,0,0,1,.6-1.474,1.972,1.972,0,0,1,1.462-.609h2.771a2.013,2.013,0,0,1,.81.166,2.082,2.082,0,0,1,.665.443,2.11,2.11,0,0,1,.443.665,2.066,2.066,0,0,1,.165.81Zm2.906-2.063a.823.823,0,0,1,.642-.222h6.779a.788.788,0,0,1,.632.222.833.833,0,0,1,.188.555.771.771,0,0,1-.2.532.823.823,0,0,1-.642.222h-6.779a.788.788,0,0,1-.632-.222.8.8,0,0,1-.188-.532A.8.8,0,0,1,248.243-149.007Zm8.032,3.947a.865.865,0,0,1-.654.222h-6.692a.869.869,0,0,1-.642-.222.727.727,0,0,1-.222-.532.763.763,0,0,1,.222-.542.875.875,0,0,1,.665-.232h6.6a.956.956,0,0,1,.688.232.727.727,0,0,1,.244.542A.749.749,0,0,1,256.275-145.06Z" transform="translate(-207.433 514.524)" fill="#a8bf54"/>
    <g id="Symbol_10_11" data-name="Symbol 10 – 11" transform="translate(39 340.893)">
      <g transform="matrix(1, 0, 0, 1, -17.71, 0.11)" filter="url(#Ellipse_185)">
        <circle id="Ellipse_185-2" data-name="Ellipse 185" cx="6.554" cy="6.554" r="6.554" transform="translate(26.71 6)" fill="#a8bf54"/>
      </g>
      <text id="_" data-name="+" transform="translate(13 16.107)" fill="#ededed" font-size="9" font-family="Roboto-Bold, Roboto" font-weight="700" letter-spacing="-0.012em"><tspan x="0" y="0">+</tspan></text>
    </g>
  </g>
</svg>
